<?xml version="1.0" encoding="utf-8"?>
<!-- Generator: Adobe Illustrator 23.1.1, SVG Export Plug-In . SVG Version: 6.00 Build 0)  -->
<svg version="1.1" id="Layer_1" xmlns="http://www.w3.org/2000/svg" xmlns:xlink="http://www.w3.org/1999/xlink" x="0px" y="0px"
	 viewBox="0 0 500 500" style="enable-background:new 0 0 500 500;" xml:space="preserve">
<style type="text/css">
	.st0{fill:none;stroke:#FF00FF;stroke-miterlimit:10;}
	.st1{clip-path:url(#SVGID_2_);fill:#FF00FF;}
	.st2{clip-path:url(#SVGID_2_);fill:none;stroke:#FF00FF;stroke-width:3;stroke-miterlimit:10;}
	.st3{clip-path:url(#SVGID_2_);fill:#151515;}
	.st4{clip-path:url(#SVGID_2_);fill:none;stroke:#FFFFFF;stroke-width:0.629;stroke-miterlimit:10;}
	.st5{clip-path:url(#SVGID_2_);fill:none;stroke:#FFFFFF;stroke-width:0.584;stroke-miterlimit:10;}
	.st6{clip-path:url(#SVGID_2_);fill:none;stroke:#FFFFFF;stroke-width:0.615;stroke-miterlimit:10;}
	.st7{fill:#151515;}
	.st8{fill:none;stroke:#FFFFFF;stroke-miterlimit:10;}
	.st9{fill:#FF00FF;}
</style>
<line class="st0" x1="0" y1="0" x2="500" y2="500"/>
<g>
	<defs>
		<rect id="SVGID_1_" x="-390" y="-1671.5" width="1280" height="3843.1"/>
	</defs>
	<clipPath id="SVGID_2_">
		<use xlink:href="#SVGID_1_"  style="overflow:visible;"/>
	</clipPath>
	<rect x="571.4" y="-1461.1" class="st1" width="35.9" height="23.9"/>
	<rect x="571.4" y="-1466" class="st1" width="14.2" height="4.9"/>
	<line class="st2" x1="-266.6" y1="-1418" x2="516.8" y2="-1418"/>
	<line class="st2" x1="-266.6" y1="-585" x2="762.9" y2="-585"/>
	<path class="st3" d="M-95.8-335.8c0,12.4-10.1,22.5-22.5,22.5c-12.4,0-22.5-10.1-22.5-22.5c0-12.4,10.1-22.5,22.5-22.5
		C-105.9-358.3-95.8-348.2-95.8-335.8"/>
	<line class="st4" x1="-140.9" y1="-336" x2="-95.7" y2="-336"/>
	<line class="st4" x1="-118.3" y1="-313.4" x2="-118.3" y2="-358.6"/>
	<line class="st5" x1="-98.8" y1="-347" x2="-137.8" y2="-347"/>
	<line class="st5" x1="-98.8" y1="-324.5" x2="-137.8" y2="-324.5"/>
	<path class="st6" d="M-111.1-357.4c0,0,3,10.2,3,21.5c0,11.3-3,21.8-3,21.8"/>
	<path class="st6" d="M-125.6-357.4c0,0-3,10.2-3,21.6c0,11.4,3,21.7,3,21.7"/>
</g>
<g>
	<rect x="-264.8" y="-551.1" class="st7" width="1024.5" height="190.6"/>
	<text transform="matrix(1 0 0 1 33.05 -475.4742)" style="fill:#FFFFFF; font-family:'IBMPlexMono'; font-size:48px;">1.188</text>
	<text transform="matrix(1 0 0 1 289.1586 -475.4741)" style="fill:#FFFFFF; font-family:'IBMPlexMono'; font-size:48px;">03 a 13/05/2018</text>
	<text transform="matrix(1 0 0 1 -226.0232 -475.4739)" class="st9" style="font-family:'IBMPlexMono'; font-size:48px;">2.281</text>
	<g>
		
			<text transform="matrix(1 0 0 1 -226.4399 -436.7666)" style="fill:#FFFFFF; font-family:'IBMPlexMono-Bold'; font-size:18.3672px;">respondentes</text>
	</g>
	<g>
		<text transform="matrix(1 0 0 1 34.0825 -436.7666)"><tspan x="0" y="0" style="fill:#FFFFFF; font-family:'IBMPlexMono-Bold'; font-size:18.3672px;">pessoas</tspan><tspan x="0" y="23.7" style="fill:#FFFFFF; font-family:'IBMPlexMono-Bold'; font-size:18.3672px;">com comentários</tspan><tspan x="0" y="47.4" style="fill:#FFFFFF; font-family:'IBMPlexMono-Bold'; font-size:18.3672px;">adicionados</tspan></text>
	</g>
	<g>
		
			<text transform="matrix(1 0 0 1 293.0887 -436.7666)" style="fill:#FFFFFF; font-family:'IBMPlexMono-Bold'; font-size:18.3672px;">período analisado</text>
	</g>
	<line class="st8" x1="-37.5" y1="-359.6" x2="11.7" y2="-550.9"/>
	<line class="st8" x1="207" y1="-359.6" x2="256.3" y2="-550.9"/>
	<rect x="-264.8" y="-586.7" class="st9" width="1024.5" height="37.8"/>
	<g>
		
			<text transform="matrix(1 0 0 1 -240.3832 -559.5799)" class="st7" style="font-family:'IBMPlexMono-Bold'; font-size:18.3672px;">NÚMEROS GERAIS DA ANÁLISE</text>
	</g>
</g>
<rect x="-297.9" y="-585.9" style="fill:none;" width="659.6" height="291.4"/>
</svg>
